<?xml version="1.0" encoding="UTF-8"?>
<svg version="1.1" xmlns="http://www.w3.org/2000/svg" width="512" height="512">
<path d="M0 0 C3.88265681 0.72799815 5.46228253 1.50231129 8 4.5625 C8.58550008 11.98130483 7.05455998 18.41366893 5.1875 25.5625 C3.28154666 33.15606013 1.45654898 40.72016024 0.125 48.4375 C0.00535889 49.12585938 -0.11428223 49.81421875 -0.23754883 50.5234375 C-0.69059322 53.24658657 -1 55.7958524 -1 58.5625 C-0.21238281 57.82386719 0.57523438 57.08523437 1.38671875 56.32421875 C7.19026327 50.90715776 13.0452745 45.55454863 19.0625 40.375 C19.86530396 39.67153442 19.86530396 39.67153442 20.68432617 38.95385742 C23.35037649 36.68468938 25.4632893 34.99504735 29 34.5625 C30.52327076 36.94282586 31.07447442 38.09815822 30.61962891 40.93408203 C30.17756104 42.23901611 30.17756104 42.23901611 29.7265625 43.5703125 C29.40067139 44.54790527 29.07478027 45.52549805 28.73901367 46.53271484 C28.37138916 47.57379395 28.00376465 48.61487305 27.625 49.6875 C27.25286377 50.76338379 26.88072754 51.83926758 26.49731445 52.94775391 C20.19974358 70.82961407 12.56417829 89.11122176 -0.1875 103.4375 C-4.76013055 109.05995033 -3.32888447 115.93405525 -2.70776367 122.78662109 C-2.34554155 125.96863678 -1.93480083 129.13962908 -1.5 132.3125 C-1.35691406 133.40304688 -1.21382812 134.49359375 -1.06640625 135.6171875 C-0.71779704 138.26661752 -0.36226144 140.91490838 0 143.5625 C3.10842836 140.62446447 5.0669614 137.24033062 7.1875 133.5625 C10.09098736 128.64766495 13.0557972 123.81489598 16.3125 119.125 C17.23482422 117.79662109 17.23482422 117.79662109 18.17578125 116.44140625 C19.07876953 115.51134766 19.07876953 115.51134766 20 114.5625 C21.32 114.5625 22.64 114.5625 24 114.5625 C31.57247028 129.70744056 22.37551243 161.37261426 18 176.5625 C16.73194231 180.24135137 15.30121107 183.83703015 13.72265625 187.39453125 C11.75579533 196.01682427 16.97334829 204.47059396 20.5625 212.0625 C21.32336914 213.70605469 21.32336914 213.70605469 22.09960938 215.3828125 C24.06222085 220.2882117 24.06222085 220.2882117 27 224.5625 C27.19634033 223.78648437 27.39268066 223.01046875 27.5949707 222.2109375 C28.49614701 218.66025518 29.40426379 215.11138272 30.3125 211.5625 C30.62123047 210.34175781 30.92996094 209.12101563 31.24804688 207.86328125 C32.85543305 201.6029351 34.5664268 195.55283403 37 189.5625 C38.65 189.8925 40.3 190.2225 42 190.5625 C44.88665104 199.13963937 47.39611537 207.69872362 49.25 216.5625 C49.41274414 217.33827393 49.57548828 218.11404785 49.74316406 218.91333008 C51.26350513 226.43030301 52.15418028 233.52984953 51.81640625 241.2109375 C51.7745373 242.64316778 51.73489261 244.0754645 51.69726562 245.5078125 C51.63578077 247.72322688 51.56262946 249.93492336 51.45141602 252.1484375 C50.91088499 262.81976818 50.91088499 262.81976818 55.66796875 272.171875 C57.08562666 273.66095738 58.528145 275.12696416 60 276.5625 C61.03057631 277.77652725 62.04799507 279.00195019 63.046875 280.2421875 C63.94653883 281.30845574 64.84753726 282.37359964 65.75 283.4375 C66.20503906 283.97890625 66.66007812 284.5203125 67.12890625 285.078125 C69.64922642 288.05602492 72.2329877 290.7954877 75 293.5625 C75 281.3525 75 269.1425 75 256.5625 C76.32 256.2325 77.64 255.9025 79 255.5625 C94.66661792 273.36790535 108.33408978 300.69386946 111.36328125 324.40625 C112.2928381 327.55419712 114.05059431 328.47302436 116.75 330.25 C118.04164063 331.12205078 118.04164063 331.12205078 119.359375 332.01171875 C121.85534093 333.4775449 124.28539181 334.57137507 127 335.5625 C127.474375 334.428125 127.94875 333.29375 128.4375 332.125 C130 328.5625 130 328.5625 131 327.5625 C133.37338639 327.40278023 135.72118272 327.3032567 138.09765625 327.24609375 C139.16094398 327.2149221 139.16094398 327.2149221 140.24571228 327.18312073 C142.51787305 327.11755402 144.79015264 327.0587077 147.0625 327 C148.59962183 326.95682151 150.1367315 326.91320745 151.67382812 326.86914062 C155.4490959 326.76186551 159.2244836 326.66061863 163 326.5625 C177.45513574 300.15000293 186.35951653 274.36728496 191 244.5625 C190.21318848 244.42005859 189.42637695 244.27761719 188.61572266 244.13085938 C185.85169974 243.53027646 184.56630597 242.80009945 182.375 241.0625 C181.70082031 240.53140625 181.02664062 240.0003125 180.33203125 239.453125 C179.56246094 238.82921875 178.79289063 238.2053125 178 237.5625 C176.55173828 236.41007812 176.55173828 236.41007812 175.07421875 235.234375 C167.14967462 228.86184924 167.14967462 228.86184924 166 226.5625 C163.58123695 226.32214493 161.23733054 226.1930615 158.8125 226.125 C137.06245931 225.10330029 116.2884842 217.17042631 100 202.5625 C99.10539063 201.76199219 98.21078125 200.96148437 97.2890625 200.13671875 C83.48218552 187.08399892 74.65837294 170.95188487 70 152.5625 C69.82049805 151.86165283 69.64099609 151.16080566 69.45605469 150.4387207 C67.50390762 141.56413444 67.62780027 132.58699112 67.62939453 123.54516602 C67.62498191 120.7384951 67.58845102 117.93335116 67.55078125 115.12695312 C67.54491867 113.32813031 67.54094554 111.52930013 67.5390625 109.73046875 C67.52469147 108.89911911 67.51032043 108.06776947 67.49551392 107.21122742 C67.53732307 101.87816491 68.36850035 98.73485281 72 94.5625 C75.18457752 92.53691482 77.673415 92.31798325 81.41113281 92.33544922 C82.49195129 92.33560028 83.57276978 92.33575134 84.68634033 92.33590698 C85.84687927 92.34622955 87.00741821 92.35655212 88.203125 92.3671875 C89.99251495 92.37143234 89.99251495 92.37143234 91.8180542 92.37576294 C95.62880476 92.38695947 99.43932045 92.41206347 103.25 92.4375 C105.83332994 92.44753046 108.41666356 92.4566562 111 92.46484375 C117.33342385 92.48689715 123.6666721 92.52142374 130 92.5625 C130 88.9325 130 85.3025 130 81.5625 C128.72125 81.60375 127.4425 81.645 126.125 81.6875 C123.9453125 81.7578125 123.9453125 81.7578125 122 81.5625 C119.39131631 78.95381631 119.74271087 77.81717636 119.734375 74.1875 C119.73179687 73.12015625 119.72921875 72.0528125 119.7265625 70.953125 C119.73429688 69.83421875 119.74203125 68.7153125 119.75 67.5625 C119.74226562 66.44359375 119.73453125 65.3246875 119.7265625 64.171875 C119.72914063 63.10453125 119.73171875 62.0371875 119.734375 60.9375 C119.73663086 59.95523438 119.73888672 58.97296875 119.74121094 57.9609375 C120 55.5625 120 55.5625 122 53.5625 C124.89546204 53.31081772 124.89546204 53.31081772 128.6809082 53.30853271 C129.72266063 53.30385274 129.72266063 53.30385274 130.78545856 53.29907823 C133.12398456 53.2910698 135.4622531 53.29743279 137.80078125 53.30371094 C139.47268832 53.30100233 141.1445942 53.29744214 142.8164978 53.29309082 C147.36598494 53.283949 151.91538168 53.28751843 156.46487045 53.29384899 C161.21787516 53.29889973 165.97087195 53.29422013 170.72387695 53.29107666 C178.70688268 53.2874343 186.68985144 53.29224317 194.67285156 53.30175781 C203.91257724 53.31264288 213.15221467 53.30911749 222.39193821 53.298105 C230.31382028 53.28903979 238.23567572 53.28774309 246.1575613 53.29298234 C250.89384343 53.29610627 255.63008403 53.29649984 260.36636353 53.28990936 C264.81832654 53.28414764 269.27017537 53.28811117 273.72212601 53.29969788 C275.35964391 53.30235077 276.99717136 53.30156871 278.63468552 53.29717255 C280.86295232 53.2917403 283.09084885 53.29852255 285.3190918 53.30853271 C286.56828903 53.30928677 287.81748627 53.31004082 289.10453796 53.31081772 C292 53.5625 292 53.5625 294 55.5625 C294.25878906 57.9609375 294.25878906 57.9609375 294.265625 60.9375 C294.26820313 62.00484375 294.27078125 63.0721875 294.2734375 64.171875 C294.26570313 65.29078125 294.25796875 66.4096875 294.25 67.5625 C294.25773437 68.68140625 294.26546875 69.8003125 294.2734375 70.953125 C294.26957031 72.55414063 294.26957031 72.55414063 294.265625 74.1875 C294.26336914 75.16976562 294.26111328 76.15203125 294.25878906 77.1640625 C294 79.5625 294 79.5625 292 81.5625 C289.31160615 81.83241906 286.70858064 81.64987357 284 81.5625 C284 85.1925 284 88.8225 284 92.5625 C285.60439941 92.54155273 287.20879883 92.52060547 288.86181641 92.49902344 C294.82168634 92.42655236 300.78151741 92.38067361 306.74169922 92.34277344 C309.31989088 92.32267437 311.89803704 92.29539059 314.47607422 92.26074219 C318.18468461 92.21215153 321.89269156 92.18951342 325.6015625 92.171875 C326.75177887 92.15122986 327.90199524 92.13058472 329.08706665 92.10931396 C335.32711536 92.10756942 339.36575299 92.17378239 344 96.5625 C346.92129311 100.2200326 346.30569622 104.92329055 346.30078125 109.39453125 C346.30506638 110.2633342 346.3093515 111.13213715 346.31376648 112.02726746 C346.31950826 113.87062715 346.32001115 115.71400951 346.31567383 117.55737305 C346.31255398 120.32707576 346.33583296 123.09566686 346.36132812 125.86523438 C346.46804547 155.06228043 337.0583781 178.81703485 316.875 200.125 C300.18601769 216.44516502 277.00787487 225.77372408 253.74609375 225.81640625 C250.06281844 225.9486978 248.39547829 226.14872557 245.8046875 228.859375 C245.20914062 229.75140625 244.61359375 230.6434375 244 231.5625 C229.52272727 244.5625 229.52272727 244.5625 223 244.5625 C225.61286297 259.13236159 228.27225387 273.51598485 233 287.5625 C233.40476562 288.8103125 233.80953125 290.058125 234.2265625 291.34375 C238.44870179 303.74618538 244.82585921 315.0374372 251 326.5625 C267.335 327.0575 267.335 327.0575 284 327.5625 C287 333.5625 287 333.5625 287 336.5625 C288.75129657 335.46039095 290.50098464 334.35572568 292.25 333.25 C293.22453125 332.63511719 294.1990625 332.02023437 295.203125 331.38671875 C296.12609375 330.78472656 297.0490625 330.18273437 298 329.5625 C299.09828125 328.96695313 299.09828125 328.96695313 300.21875 328.359375 C303.03855366 325.51483622 303.42722016 321.91823186 304.25 318.125 C309.33322651 297.02971135 319.29516936 271.26733064 335 255.5625 C336.32 255.8925 337.64 256.2225 339 256.5625 C339 268.7725 339 280.9825 339 293.5625 C345.58950464 287.02217402 345.58950464 287.02217402 351.625 280.125 C352.31851562 279.28066406 353.01203125 278.43632812 353.7265625 277.56640625 C354.47679687 276.57511719 355.22703125 275.58382813 356 274.5625 C356.52859619 273.96469727 357.05719238 273.36689453 357.60180664 272.75097656 C362.78919822 266.26578338 362.64713379 260.37218995 362.27960205 252.29437256 C362.12305474 248.71328793 362.08134411 245.1308181 362.03515625 241.546875 C362.02458191 240.84573578 362.01400757 240.14459656 362.00311279 239.42221069 C361.84094568 224.33776561 364.53974261 202.25288608 373 189.5625 C374.32 189.5625 375.64 189.5625 377 189.5625 C381.09585566 201.06575418 384.16783014 212.69149014 387 224.5625 C391.1042977 216.63516358 395.12074124 208.67872769 398.5625 200.4375 C399.30693359 198.67019531 399.30693359 198.67019531 400.06640625 196.8671875 C401.85518344 190.5353653 399.23701118 185.08663156 397.125 179.125 C390.32675542 159.18496454 387.88696308 137.60666308 389 116.5625 C389.33 115.9025 389.66 115.2425 390 114.5625 C394.53772779 115.09047612 394.53772779 115.09047612 396.57397461 117.16967773 C397.23151733 118.19750366 397.23151733 118.19750366 397.90234375 119.24609375 C398.39758545 120.00486816 398.89282715 120.76364258 399.40307617 121.54541016 C399.90943604 122.3554248 400.4157959 123.16543945 400.9375 124 C401.46384033 124.8151709 401.99018066 125.6303418 402.5324707 126.47021484 C405.81180217 131.57681275 409.00333216 136.73648024 412.01171875 142.0078125 C412.33785156 142.52085937 412.66398437 143.03390625 413 143.5625 C413.33 143.5625 413.66 143.5625 414 143.5625 C414.51287503 139.81414737 415.00783138 136.06362299 415.5 132.3125 C415.64308594 131.26835937 415.78617187 130.22421875 415.93359375 129.1484375 C418.29219492 115.91037924 418.29219492 115.91037924 414.83984375 103.53125 C413.89827216 102.35383228 412.92971797 101.19756522 411.9375 100.0625 C410.91279251 98.77390463 409.8919707 97.48221003 408.875 96.1875 C408.37742187 95.56746094 407.87984375 94.94742188 407.3671875 94.30859375 C396.83563024 80.85829061 390.51816388 62.94030738 385.25 46.875 C384.85349243 45.70022095 384.85349243 45.70022095 384.44897461 44.50170898 C382.79319976 39.16880071 382.79319976 39.16880071 383.859375 36.04296875 C384.42398438 35.31013672 384.42398438 35.31013672 385 34.5625 C389.80717701 36.07487029 392.92696048 38.78513423 396.625 42.0625 C397.23166504 42.59133789 397.83833008 43.12017578 398.46337891 43.66503906 C404.04710459 48.55134732 409.54629627 53.53173656 415 58.5625 C413.6770024 43.4620791 410.79758086 27.95524257 406 13.5625 C405.60520131 10.49999013 405.51467929 7.6178145 406 4.5625 C408.53771747 1.50231129 410.11734319 0.72799815 414 0 C417.13147218 0.58715103 418.59411993 1.37871374 420.76904297 3.68188477 C423.60554918 8.01540466 424.41318088 13.33055206 425.5625 18.3125 C426.00855591 20.1840979 426.00855591 20.1840979 426.46362305 22.09350586 C431.35018873 43.12744748 433.73586481 64.03086759 435 85.5625 C435.1128616 87.38934889 435.22611201 89.21617382 435.33984375 91.04296875 C435.57499333 94.88208301 435.79414655 98.72170791 436 102.5625 C444.56477476 91.82254435 451.73185626 80.20022877 459 68.5625 C460.32 68.8925 461.64 69.2225 463 69.5625 C464.0528421 97.79486586 458.84615618 123.50689358 440.5390625 145.859375 C438 148.5625 438 148.5625 436.08251953 149.90014648 C428.61810759 155.29998929 427.48449255 162.62012393 425.625 171.125 C425.13428022 173.22880998 424.63528894 175.33054908 424.13607788 177.43235779 C423.68926124 179.33415235 423.2612951 181.24034706 422.83447266 183.14672852 C422.04956463 186.35961565 421.09398474 189.443004 420 192.5625 C433.39145249 182.53006444 433.39145249 182.53006444 446.0625 171.6328125 C447.875 169.9375 447.875 169.9375 451 167.5625 C453.9375 167.6875 453.9375 167.6875 456 168.5625 C454.53855571 189.50986819 439.19624199 211.71365528 424 225.5625 C421.9854324 227.14627956 419.92347438 228.67220014 417.8125 230.125 C417.26005615 230.50865723 416.7076123 230.89231445 416.13842773 231.28759766 C412.42825886 233.79833347 408.68660253 235.65757018 404.5625 237.4375 C399.0690906 240.08380296 397.14320046 242.74206977 394.640625 248.20703125 C392.11686677 253.36871773 388.86829668 258.03265523 385.69311523 262.81176758 C385.00004272 263.86400513 385.00004272 263.86400513 384.29296875 264.9375 C383.8755542 265.56398438 383.45813965 266.19046875 383.02807617 266.8359375 C381.83626277 268.69762089 381.83626277 268.69762089 381 271.5625 C384.77332167 270.17333271 388.54315428 268.77491592 392.3125 267.375 C393.36501953 266.98763672 394.41753906 266.60027344 395.50195312 266.20117188 C401.72183924 263.88546043 407.71648457 261.37103024 413.64916992 258.3894043 C416.29137738 257.46000803 417.44814607 257.45808293 420 258.5625 C420.33 259.2225 420.66 259.8825 421 260.5625 C415.37820391 271.70780904 406.75900652 281.84889804 397 289.5625 C395.71029297 290.62404297 395.71029297 290.62404297 394.39453125 291.70703125 C382.17601343 301.38620798 366.23821991 310.54749807 350.25 310.6875 C344.88125755 311.08592245 342.08104431 314.91689521 338.65234375 318.7265625 C332.84703618 324.93371021 326.1342169 330.16709756 319.4375 335.375 C318.28145264 336.27532959 318.28145264 336.27532959 317.10205078 337.19384766 C309.97158296 342.68839038 302.57864797 347.71127106 295 352.5625 C295.51919708 355.33622853 296.09953701 357.83769055 297.0625 360.5 C298.03888747 363.68953241 298.15781194 366.24844925 298 369.5625 C295.01890615 371.05304693 292.3287521 370.68509406 289.00192261 370.68275452 C288.27334144 370.68360894 287.54476027 370.68446337 286.79410088 370.68534368 C284.34041113 370.68699743 281.88678898 370.68147883 279.43310547 370.67602539 C277.6791382 370.67574347 275.92517081 370.67590135 274.17120361 370.6764679 C269.39873671 370.67675568 264.62629476 370.67086199 259.85383368 370.66389394 C254.87034067 370.65765726 249.88684714 370.65705635 244.90335083 370.65586853 C235.46151501 370.65275614 226.01969073 370.644544 216.57786 370.63451904 C205.83074033 370.62335504 195.08362013 370.61784673 184.33649611 370.61282361 C162.2243243 370.60236131 140.11216287 370.58476365 118 370.5625 C116.94384766 368.77832031 116.94384766 368.77832031 116 366.5625 C116.66831503 363.99384571 117.39301656 361.75258007 118.375 359.3125 C118.6225 358.6628125 118.87 358.013125 119.125 357.34375 C119.73639014 355.74472963 120.36640959 354.15285444 121 352.5625 C120.29875 352.315 119.5975 352.0675 118.875 351.8125 C105.67768537 346.07453712 92.76231266 334.3064536 82.28515625 324.6640625 C79.50336157 322.10576244 76.65184568 319.63483511 73.7890625 317.16796875 C72 315.5625 72 315.5625 70.171875 313.421875 C67.31330305 310.97460837 65.34774416 310.93593859 61.625 310.625 C44.03209206 308.49418196 29.26333792 299.93449551 16 288.5625 C15.38898438 288.08425781 14.77796875 287.60601562 14.1484375 287.11328125 C5.20237723 279.98502775 -1.16203481 270.2674132 -7 260.5625 C-6.34 259.5725 -5.68 258.5825 -5 257.5625 C-1.01642378 258.21754225 2.42746533 259.44206062 6.1484375 260.99609375 C7.31890625 261.48013672 8.489375 261.96417969 9.6953125 262.46289062 C10.90960938 262.97013672 12.12390625 263.47738281 13.375 264 C15.7771896 265.00219556 18.18079731 266.00100004 20.5859375 266.99609375 C21.6486084 267.44009521 22.7112793 267.88409668 23.80615234 268.34155273 C27.17774833 269.63044981 30.51818704 270.61922327 34 271.5625 C33.39414063 270.67691406 32.78828125 269.79132813 32.1640625 268.87890625 C31.31728809 267.62788851 30.47097217 266.37656037 29.625 265.125 C29.16947754 264.45847412 28.71395508 263.79194824 28.24462891 263.10522461 C25.82804247 259.5136657 23.61685034 255.9322955 21.671875 252.0625 C16.58211139 242.09354607 12.22915529 237.63144172 1.90625 233.3046875 C-17.36739456 225.18996021 -29.87724431 202.84394756 -38 184.5625 C-42.55732402 173.22829069 -42.55732402 173.22829069 -41 167.5625 C-35.98566256 167.96253063 -33.23750621 170.61667766 -29.6875 173.875 C-22.13925779 180.58955576 -14.14527262 186.59635226 -6 192.5625 C-6.19634033 191.86801758 -6.39268066 191.17353516 -6.5949707 190.45800781 C-7.50265897 187.24335634 -8.40759003 184.02793461 -9.3125 180.8125 C-9.62123047 179.72066406 -9.92996094 178.62882813 -10.24804688 177.50390625 C-10.55419922 176.41464844 -10.86035156 175.32539063 -11.17578125 174.203125 C-11.48612305 173.10556885 -11.79646484 172.0080127 -12.11621094 170.87719727 C-12.70339949 168.67491577 -13.23854197 166.45807011 -13.71972656 164.23022461 C-15.03525409 158.15730668 -15.92944802 154.48095809 -21.125 150.625 C-37.05331187 137.45310669 -45.7233017 115.31174656 -48.73046875 95.1328125 C-49.37214887 86.63287582 -49.14778944 78.07971889 -49 69.5625 C-47.02 69.0675 -47.02 69.0675 -45 68.5625 C-44.62302979 69.16610352 -44.24605957 69.76970703 -43.85766602 70.39160156 C-42.0980698 73.20202681 -40.33032135 76.00724187 -38.5625 78.8125 C-37.97017578 79.76125 -37.37785156 80.71 -36.76757812 81.6875 C-32.18758863 88.93710904 -27.22761771 95.77221807 -22 102.5625 C-21.93268677 101.20608398 -21.93268677 101.20608398 -21.86401367 99.82226562 C-20.49586304 72.92950155 -18.03873602 46.87379018 -12 20.5625 C-11.8232373 19.76295898 -11.64647461 18.96341797 -11.46435547 18.13964844 C-10.99765 16.04563269 -10.50561733 13.95991399 -10 11.875 C-9.731875 10.75738281 -9.46375 9.63976562 -9.1875 8.48828125 C-7.35339144 3.96937561 -4.88394988 0.9157406 0 0 Z M84 108.5625 C83.69941923 137.71883496 85.37574991 164.21716025 106.578125 186.296875 C117.52798267 196.54029024 132.7559916 206.58384443 148 208.5625 C148.99 208.2325 149.98 207.9025 151 207.5625 C150.49210937 206.72589844 149.98421875 205.88929688 149.4609375 205.02734375 C135.02130884 180.80046435 130.8453267 156.03485313 130.375 128.1875 C130.25125 121.71125 130.1275 115.235 130 108.5625 C114.82 108.5625 99.64 108.5625 84 108.5625 Z M284 108.5625 C283.7911709 121.19961487 283.7911709 121.19961487 283.61206055 133.8371582 C283.17004532 159.01840689 277.78843486 180.34293408 266 202.5625 C264.99458119 204.55978141 263.99261771 206.55882586 263 208.5625 C283.11625915 205.90937133 301.39506264 194.67414494 313.875 178.75 C326.53842433 160.71914261 330.21678096 142.61435333 330.0625 121 C330.041875 116.895625 330.02125 112.79125 330 108.5625 C314.82 108.5625 299.64 108.5625 284 108.5625 Z " fill="#F7BC14" transform="translate(49,70.4375)"/>
<path d="M0 0 C38.61 0 77.22 0 117 0 C117.04125 10.35375 117.0825 20.7075 117.125 31.375 C117.14320801 34.60458496 117.16141602 37.83416992 117.18017578 41.16162109 C117.30594847 78.34921268 117.30594847 78.34921268 112.25 92.8125 C111.98759521 93.59890869 111.72519043 94.38531738 111.45483398 95.19555664 C101.82549927 123.33068531 84.5830703 145.61128646 60 162 C53.12966445 161.62863051 47.74305337 156.11839099 42.6875 151.875 C42.15060547 151.43285156 41.61371094 150.99070312 41.06054688 150.53515625 C37.12478017 147.24956034 37.12478017 147.24956034 36 145 C33.58123695 144.75964493 31.23733054 144.6305615 28.8125 144.5625 C7.06245931 143.54080029 -13.7115158 135.60792631 -30 121 C-30.89460938 120.19949219 -31.78921875 119.39898437 -32.7109375 118.57421875 C-46.51781448 105.52149892 -55.34162706 89.38938487 -60 71 C-60.17950195 70.29915283 -60.35900391 69.59830566 -60.54394531 68.8762207 C-62.49609238 60.00163444 -62.37219973 51.02449112 -62.37060547 41.98266602 C-62.37501809 39.1759951 -62.41154898 36.37085116 -62.44921875 33.56445312 C-62.45508133 31.76563031 -62.45905446 29.96680013 -62.4609375 28.16796875 C-62.47530853 27.33661911 -62.48967957 26.50526947 -62.50448608 25.64872742 C-62.46267693 20.31566491 -61.63149965 17.17235281 -58 13 C-54.81542248 10.97441482 -52.326585 10.75548325 -48.58886719 10.77294922 C-47.50804871 10.77310028 -46.42723022 10.77325134 -45.31365967 10.77340698 C-44.15312073 10.78372955 -42.99258179 10.79405212 -41.796875 10.8046875 C-40.00748505 10.80893234 -40.00748505 10.80893234 -38.1819458 10.81326294 C-34.37119524 10.82445947 -30.56067955 10.84956347 -26.75 10.875 C-24.16667006 10.88503046 -21.58333644 10.8941562 -19 10.90234375 C-12.66657615 10.92439715 -6.3333279 10.95892374 0 11 C0 7.37 0 3.74 0 0 Z M-46 27 C-46.30058077 56.15633496 -44.62425009 82.65466025 -23.421875 104.734375 C-12.47201733 114.97779024 2.7559916 125.02134443 18 127 C18.99 126.67 19.98 126.34 21 126 C20.49210937 125.16339844 19.98421875 124.32679688 19.4609375 123.46484375 C5.02130884 99.23796435 0.8453267 74.47235313 0.375 46.625 C0.25125 40.14875 0.1275 33.6725 0 27 C-15.18 27 -30.36 27 -46 27 Z " fill="#FDD02F" transform="translate(179,152)"/>
<path d="M0 0 C6.153282 4.3394778 6.94148324 10.72338665 8.5625 17.75 C9.00855591 19.6215979 9.00855591 19.6215979 9.46362305 21.53100586 C14.35018873 42.56494748 16.73586481 63.46836759 18 85 C18.1128616 86.82684889 18.22611201 88.65367382 18.33984375 90.48046875 C18.57499333 94.31958301 18.79414655 98.15920791 19 102 C27.56477476 91.26004435 34.73185626 79.63772877 42 68 C43.32 68.33 44.64 68.66 46 69 C47.0528421 97.23236586 41.84615618 122.94439358 23.5390625 145.296875 C21 148 21 148 19.08251953 149.33764648 C11.61810759 154.73748929 10.48449255 162.05762393 8.625 170.5625 C8.13428022 172.66630998 7.63528894 174.76804908 7.13607788 176.86985779 C6.68926124 178.77165235 6.2612951 180.67784706 5.83447266 182.58422852 C5.04956463 185.79711565 4.09398474 188.880504 3 192 C16.39145249 181.96756444 16.39145249 181.96756444 29.0625 171.0703125 C30.875 169.375 30.875 169.375 34 167 C36.9375 167.125 36.9375 167.125 39 168 C37.53855571 188.94736819 22.19624199 211.15115528 7 225 C4.9854324 226.58377956 2.92347438 228.10970014 0.8125 229.5625 C0.26005615 229.94615723 -0.2923877 230.32981445 -0.86157227 230.72509766 C-4.57174114 233.23583347 -8.31339747 235.09507018 -12.4375 236.875 C-17.9309094 239.52130296 -19.85679954 242.17956977 -22.359375 247.64453125 C-24.88313323 252.80621773 -28.13170332 257.47015523 -31.30688477 262.24926758 C-31.76893311 262.95075928 -32.23098145 263.65225098 -32.70703125 264.375 C-33.1244458 265.00148438 -33.54186035 265.62796875 -33.97192383 266.2734375 C-35.16373723 268.13512089 -35.16373723 268.13512089 -36 271 C-32.22667833 269.61083271 -28.45684572 268.21241592 -24.6875 266.8125 C-23.63498047 266.42513672 -22.58246094 266.03777344 -21.49804688 265.63867188 C-15.27816076 263.32296043 -9.28351543 260.80853024 -3.35083008 257.8269043 C-0.70862262 256.89750803 0.44814607 256.89558293 3 258 C3.33 258.66 3.66 259.32 4 260 C-1.62179609 271.14530904 -10.24099348 281.28639804 -20 289 C-21.28970703 290.06154297 -21.28970703 290.06154297 -22.60546875 291.14453125 C-34.82398657 300.82370798 -50.76178009 309.98499807 -66.75 310.125 C-72.11874245 310.52342245 -74.91895569 314.35439521 -78.34765625 318.1640625 C-84.15296382 324.37121021 -90.8657831 329.60459756 -97.5625 334.8125 C-98.33319824 335.41271973 -99.10389648 336.01293945 -99.89794922 336.63134766 C-107.02841704 342.12589038 -114.42135203 347.14877106 -122 352 C-121.48080292 354.77372853 -120.90046299 357.27519055 -119.9375 359.9375 C-118.96111253 363.12703241 -118.84218806 365.68594925 -119 369 C-122.11954128 370.55977064 -125.42959384 370.12104126 -128.8515625 370.09765625 C-129.62559418 370.0962413 -130.39962585 370.09482635 -131.19711304 370.09336853 C-133.67311442 370.08776403 -136.14902588 370.07521083 -138.625 370.0625 C-140.30208203 370.05748558 -141.97916547 370.05292257 -143.65625 370.04882812 C-147.77086806 370.03779315 -151.88541878 370.02052554 -156 370 C-156.30852905 369.09628662 -156.30852905 369.09628662 -156.62329102 368.17431641 C-160.50568549 356.83174005 -164.43968061 345.53469921 -168.91625977 334.41064453 C-171 329.19610748 -171 329.19610748 -171 327 C-158.46 327 -145.92 327 -133 327 C-130 333 -130 333 -130 336 C-128.24870343 334.89789095 -126.49901536 333.79322568 -124.75 332.6875 C-123.77546875 332.07261719 -122.8009375 331.45773437 -121.796875 330.82421875 C-120.41242188 329.92123047 -120.41242188 329.92123047 -119 329 C-118.2678125 328.60296875 -117.535625 328.2059375 -116.78125 327.796875 C-113.96144634 324.95233622 -113.57277984 321.35573186 -112.75 317.5625 C-107.66677349 296.46721135 -97.70483064 270.70483064 -82 255 C-80.68 255.33 -79.36 255.66 -78 256 C-78 268.21 -78 280.42 -78 293 C-71.41049536 286.45967402 -71.41049536 286.45967402 -65.375 279.5625 C-64.68148437 278.71816406 -63.98796875 277.87382812 -63.2734375 277.00390625 C-62.52320313 276.01261719 -61.77296875 275.02132813 -61 274 C-60.47140381 273.40219727 -59.94280762 272.80439453 -59.39819336 272.18847656 C-54.21080178 265.70328338 -54.35286621 259.80968995 -54.72039795 251.73187256 C-54.87694526 248.15078793 -54.91865589 244.5683181 -54.96484375 240.984375 C-54.97541809 240.28323578 -54.98599243 239.58209656 -54.99688721 238.85971069 C-55.15905432 223.77526561 -52.46025739 201.69038608 -44 189 C-42.68 189 -41.36 189 -40 189 C-35.90414434 200.50325418 -32.83216986 212.12899014 -30 224 C-25.8957023 216.07266358 -21.87925876 208.11622769 -18.4375 199.875 C-17.94121094 198.69679688 -17.44492187 197.51859375 -16.93359375 196.3046875 C-15.14481656 189.9728653 -17.76298882 184.52413156 -19.875 178.5625 C-26.67324458 158.62246454 -29.11303692 137.04416308 -28 116 C-27.67 115.34 -27.34 114.68 -27 114 C-22.46227221 114.52797612 -22.46227221 114.52797612 -20.42602539 116.60717773 C-19.76848267 117.63500366 -19.76848267 117.63500366 -19.09765625 118.68359375 C-18.60241455 119.44236816 -18.10717285 120.20114258 -17.59692383 120.98291016 C-17.09056396 121.7929248 -16.5842041 122.60293945 -16.0625 123.4375 C-15.53615967 124.2526709 -15.00981934 125.0678418 -14.4675293 125.90771484 C-11.18819783 131.01431275 -7.99666784 136.17398024 -4.98828125 141.4453125 C-4.49908203 142.21488281 -4.49908203 142.21488281 -4 143 C-3.67 143 -3.34 143 -3 143 C-2.48712497 139.25164737 -1.99216862 135.50112299 -1.5 131.75 C-1.35691406 130.70585937 -1.21382812 129.66171875 -1.06640625 128.5859375 C1.29219492 115.34787924 1.29219492 115.34787924 -2.16015625 102.96875 C-3.10172784 101.79133228 -4.07028203 100.63506522 -5.0625 99.5 C-6.08720749 98.21140463 -7.1080293 96.91971003 -8.125 95.625 C-8.62257813 95.00496094 -9.12015625 94.38492188 -9.6328125 93.74609375 C-20.16436976 80.29579061 -26.48183612 62.37780738 -31.75 46.3125 C-32.14650757 45.13772095 -32.14650757 45.13772095 -32.55102539 43.93920898 C-34.20680024 38.60630071 -34.20680024 38.60630071 -33.140625 35.48046875 C-32.57601562 34.74763672 -32.57601562 34.74763672 -32 34 C-27.19282299 35.51237029 -24.07303952 38.22263423 -20.375 41.5 C-19.76833496 42.02883789 -19.16166992 42.55767578 -18.53662109 43.10253906 C-12.95289541 47.98884732 -7.45370373 52.96923656 -2 58 C-3.3229976 42.8995791 -6.20241914 27.39274257 -11 13 C-11.39479869 9.93749013 -11.48532071 7.0553145 -11 4 C-7.79382821 0.13373402 -4.93752469 -0.92578588 0 0 Z " fill="#F7BB14" transform="translate(466,71)"/>
<path d="M0 0 C3.88265681 0.72799815 5.46228253 1.50231129 8 4.5625 C8.58550008 11.98130483 7.05455998 18.41366893 5.1875 25.5625 C3.28154666 33.15606013 1.45654898 40.72016024 0.125 48.4375 C0.00535889 49.12585938 -0.11428223 49.81421875 -0.23754883 50.5234375 C-0.69059322 53.24658657 -1 55.7958524 -1 58.5625 C-0.21238281 57.82386719 0.57523438 57.08523437 1.38671875 56.32421875 C7.19026327 50.90715776 13.0452745 45.55454863 19.0625 40.375 C19.86530396 39.67153442 19.86530396 39.67153442 20.68432617 38.95385742 C23.35037649 36.68468938 25.4632893 34.99504735 29 34.5625 C30.52327076 36.94282586 31.07447442 38.09815822 30.61962891 40.93408203 C30.17756104 42.23901611 30.17756104 42.23901611 29.7265625 43.5703125 C29.40067139 44.54790527 29.07478027 45.52549805 28.73901367 46.53271484 C28.37138916 47.57379395 28.00376465 48.61487305 27.625 49.6875 C27.25286377 50.76338379 26.88072754 51.83926758 26.49731445 52.94775391 C20.19974358 70.82961407 12.56417829 89.11122176 -0.1875 103.4375 C-4.76013055 109.05995033 -3.32888447 115.93405525 -2.70776367 122.78662109 C-2.34554155 125.96863678 -1.93480083 129.13962908 -1.5 132.3125 C-1.35691406 133.40304688 -1.21382812 134.49359375 -1.06640625 135.6171875 C-0.71779704 138.26661752 -0.36226144 140.91490838 0 143.5625 C3.10842836 140.62446447 5.0669614 137.24033062 7.1875 133.5625 C10.09098736 128.64766495 13.0557972 123.81489598 16.3125 119.125 C17.23482422 117.79662109 17.23482422 117.79662109 18.17578125 116.44140625 C19.07876953 115.51134766 19.07876953 115.51134766 20 114.5625 C21.32 114.5625 22.64 114.5625 24 114.5625 C31.57247028 129.70744056 22.37551243 161.37261426 18 176.5625 C16.73194231 180.24135137 15.30121107 183.83703015 13.72265625 187.39453125 C11.75579533 196.01682427 16.97334829 204.47059396 20.5625 212.0625 C21.32336914 213.70605469 21.32336914 213.70605469 22.09960938 215.3828125 C24.06222085 220.2882117 24.06222085 220.2882117 27 224.5625 C27.19634033 223.78648437 27.39268066 223.01046875 27.5949707 222.2109375 C28.49614701 218.66025518 29.40426379 215.11138272 30.3125 211.5625 C30.62123047 210.34175781 30.92996094 209.12101563 31.24804688 207.86328125 C32.85543305 201.6029351 34.5664268 195.55283403 37 189.5625 C38.65 189.8925 40.3 190.2225 42 190.5625 C44.88665104 199.13963937 47.39611537 207.69872362 49.25 216.5625 C49.41274414 217.33827393 49.57548828 218.11404785 49.74316406 218.91333008 C51.26350513 226.43030301 52.15418028 233.52984953 51.81640625 241.2109375 C51.7745373 242.64316778 51.73489261 244.0754645 51.69726562 245.5078125 C51.63578077 247.72322688 51.56262946 249.93492336 51.45141602 252.1484375 C50.91088499 262.81976818 50.91088499 262.81976818 55.66796875 272.171875 C57.08562666 273.66095738 58.528145 275.12696416 60 276.5625 C61.03057631 277.77652725 62.04799507 279.00195019 63.046875 280.2421875 C63.94653883 281.30845574 64.84753726 282.37359964 65.75 283.4375 C66.20503906 283.97890625 66.66007812 284.5203125 67.12890625 285.078125 C69.64922642 288.05602492 72.2329877 290.7954877 75 293.5625 C75 281.3525 75 269.1425 75 256.5625 C76.32 256.2325 77.64 255.9025 79 255.5625 C94.66609634 273.36731256 108.33820978 300.69749927 111.36328125 324.41015625 C112.2921765 327.55016412 114.04481 328.43472896 116.75 330.1875 C117.61109375 330.75726563 118.4721875 331.32703125 119.359375 331.9140625 C121.88933984 333.49341925 124.43529529 335.04028317 127 336.5625 C125.90301833 342.25389902 124.45946923 347.30817937 122 352.5625 C107.01927478 349.6829098 90.74906829 332.56755263 80 322.5625 C77.93897609 320.75325912 75.86660254 318.95818942 73.7890625 317.16796875 C72 315.5625 72 315.5625 70.171875 313.421875 C67.31330305 310.97460837 65.34774416 310.93593859 61.625 310.625 C44.03209206 308.49418196 29.26333792 299.93449551 16 288.5625 C15.38898438 288.08425781 14.77796875 287.60601562 14.1484375 287.11328125 C5.20237723 279.98502775 -1.16203481 270.2674132 -7 260.5625 C-6.34 259.5725 -5.68 258.5825 -5 257.5625 C-1.01642378 258.21754225 2.42746533 259.44206062 6.1484375 260.99609375 C7.31890625 261.48013672 8.489375 261.96417969 9.6953125 262.46289062 C10.90960938 262.97013672 12.12390625 263.47738281 13.375 264 C15.7771896 265.00219556 18.18079731 266.00100004 20.5859375 266.99609375 C21.6486084 267.44009521 22.7112793 267.88409668 23.80615234 268.34155273 C27.17774833 269.63044981 30.51818704 270.61922327 34 271.5625 C33.39414063 270.67691406 32.78828125 269.79132813 32.1640625 268.87890625 C31.31728809 267.62788851 30.47097217 266.37656037 29.625 265.125 C29.16947754 264.45847412 28.71395508 263.79194824 28.24462891 263.10522461 C25.82804247 259.5136657 23.61685034 255.9322955 21.671875 252.0625 C16.58211139 242.09354607 12.22915529 237.63144172 1.90625 233.3046875 C-17.36739456 225.18996021 -29.87724431 202.84394756 -38 184.5625 C-42.55732402 173.22829069 -42.55732402 173.22829069 -41 167.5625 C-35.98566256 167.96253063 -33.23750621 170.61667766 -29.6875 173.875 C-22.13925779 180.58955576 -14.14527262 186.59635226 -6 192.5625 C-6.19634033 191.86801758 -6.39268066 191.17353516 -6.5949707 190.45800781 C-7.50265897 187.24335634 -8.40759003 184.02793461 -9.3125 180.8125 C-9.62123047 179.72066406 -9.92996094 178.62882813 -10.24804688 177.50390625 C-10.55419922 176.41464844 -10.86035156 175.32539063 -11.17578125 174.203125 C-11.48612305 173.10556885 -11.79646484 172.0080127 -12.11621094 170.87719727 C-12.70339949 168.67491577 -13.23854197 166.45807011 -13.71972656 164.23022461 C-15.03525409 158.15730668 -15.92944802 154.48095809 -21.125 150.625 C-37.05331187 137.45310669 -45.7233017 115.31174656 -48.73046875 95.1328125 C-49.37214887 86.63287582 -49.14778944 78.07971889 -49 69.5625 C-47.02 69.0675 -47.02 69.0675 -45 68.5625 C-44.62302979 69.16610352 -44.24605957 69.76970703 -43.85766602 70.39160156 C-42.0980698 73.20202681 -40.33032135 76.00724187 -38.5625 78.8125 C-37.97017578 79.76125 -37.37785156 80.71 -36.76757812 81.6875 C-32.18758863 88.93710904 -27.22761771 95.77221807 -22 102.5625 C-21.93268677 101.20608398 -21.93268677 101.20608398 -21.86401367 99.82226562 C-20.49586304 72.92950155 -18.03873602 46.87379018 -12 20.5625 C-11.8232373 19.76295898 -11.64647461 18.96341797 -11.46435547 18.13964844 C-10.99765 16.04563269 -10.50561733 13.95991399 -10 11.875 C-9.731875 10.75738281 -9.46375 9.63976562 -9.1875 8.48828125 C-7.35339144 3.96937561 -4.88394988 0.9157406 0 0 Z " fill="#F7BB14" transform="translate(49,70.4375)"/>
<path d="M0 0 C0.33 0 0.66 0 1 0 C1.02578125 1.093125 1.0515625 2.18625 1.078125 3.3125 C1.94050219 29.49427152 6.38062545 59.6700384 23 81 C23 81.66 23 82.32 23 83 C33.56 83 44.12 83 55 83 C59.09566083 93.13137151 63.16711475 103.26594588 67 113.5 C67.45354858 114.6907312 67.45354858 114.6907312 67.91625977 115.90551758 C68.19139404 116.64825928 68.46652832 117.39100098 68.75 118.15625 C68.99234375 118.80400391 69.2346875 119.45175781 69.484375 120.11914062 C70 122 70 122 70 126 C22.81 126 -24.38 126 -73 126 C-75 122 -75 122 -74.27734375 119.00390625 C-73.61412109 117.30041016 -73.61412109 117.30041016 -72.9375 115.5625 C-72.70434082 114.94922852 -72.47118164 114.33595703 -72.23095703 113.70410156 C-71.5022822 111.7965297 -70.75319317 109.89800739 -70 108 C-69.12316055 105.75071621 -68.24806702 103.50075076 -67.375 101.25 C-66.96378906 100.19683594 -66.55257812 99.14367187 -66.12890625 98.05859375 C-64.77691233 94.39557908 -63.68183053 90.69692302 -62.67578125 86.92578125 C-62 85 -62 85 -60 83 C-57.56823603 82.75498505 -55.24135116 82.62675079 -52.8046875 82.5859375 C-51.74352219 82.55688828 -51.74352219 82.55688828 -50.66091919 82.5272522 C-48.39906915 82.46742348 -46.1371683 82.42105899 -43.875 82.375 C-42.3424256 82.33682314 -40.80987272 82.29777158 -39.27734375 82.2578125 C-35.51840376 82.16171961 -31.75936332 82.07770151 -28 82 C-13.54486426 55.58750293 -4.64048347 29.80478496 0 0 Z " fill="#FEB124" transform="translate(240,315)"/>
<path d="M0 0 C1.04175243 -0.00467997 1.04175243 -0.00467997 2.10455036 -0.00945449 C4.44307635 -0.01746291 6.7813449 -0.01109992 9.11987305 -0.00482178 C10.79178012 -0.00753038 12.463686 -0.01109058 14.1355896 -0.01544189 C18.68507673 -0.02458372 23.23447347 -0.02101428 27.78396225 -0.01468372 C32.53696696 -0.00963298 37.28996375 -0.01431259 42.04296875 -0.01745605 C50.02597448 -0.02109841 58.00894324 -0.01628955 65.99194336 -0.0067749 C75.23166904 0.00411016 84.47130647 0.00058478 93.71103001 -0.01042771 C101.63291208 -0.01949293 109.55476752 -0.02078963 117.4766531 -0.01555037 C122.21293523 -0.01242645 126.94917583 -0.01203288 131.68545532 -0.01862335 C136.13741834 -0.02438508 140.58926717 -0.02042154 145.0412178 -0.00883484 C146.67873571 -0.00618195 148.31626316 -0.00696401 149.95377731 -0.01136017 C152.18204412 -0.01679242 154.40994064 -0.01001017 156.63818359 0 C157.88738083 0.00075405 159.13657806 0.0015081 160.42362976 0.002285 C163.3190918 0.25396729 163.3190918 0.25396729 165.3190918 2.25396729 C165.57788086 4.65240479 165.57788086 4.65240479 165.5847168 7.62896729 C165.58729492 8.69631104 165.58987305 9.76365479 165.5925293 10.86334229 C165.58479492 11.98224854 165.57706055 13.10115479 165.5690918 14.25396729 C165.57682617 15.37287354 165.58456055 16.49177979 165.5925293 17.64459229 C165.58995117 18.71193604 165.58737305 19.77927979 165.5847168 20.87896729 C165.58246094 21.86123291 165.58020508 22.84349854 165.57788086 23.85552979 C165.3190918 26.25396729 165.3190918 26.25396729 163.3190918 28.25396729 C160.42362976 28.50564957 160.42362976 28.50564957 156.63818359 28.50793457 C155.59643116 28.51261454 155.59643116 28.51261454 154.53363323 28.51738906 C152.19510724 28.52539748 149.8568387 28.51903449 147.51831055 28.51275635 C145.84640348 28.51546495 144.1744976 28.51902515 142.50259399 28.52337646 C137.95310686 28.53251829 133.40371012 28.52894885 128.85422134 28.52261829 C124.10121663 28.51756755 119.34821985 28.52224716 114.59521484 28.52539062 C106.61220912 28.52903298 98.62924035 28.52422412 90.64624023 28.51470947 C81.40651455 28.50382441 72.16687713 28.50734979 62.92715359 28.51836228 C55.00527152 28.5274275 47.08341607 28.5287242 39.16153049 28.52348495 C34.42524836 28.52036102 29.68900776 28.51996745 24.95272827 28.52655792 C20.50076525 28.53231965 16.04891642 28.52835611 11.59696579 28.51676941 C9.95944789 28.51411652 8.32192043 28.51489858 6.68440628 28.51929474 C4.45613947 28.52472699 2.22824295 28.51794474 0 28.50793457 C-1.24919724 28.50718052 -2.49839447 28.50642647 -3.78544617 28.50564957 C-6.6809082 28.25396729 -6.6809082 28.25396729 -8.6809082 26.25396729 C-8.93969727 23.85552979 -8.93969727 23.85552979 -8.9465332 20.87896729 C-8.94911133 19.81162354 -8.95168945 18.74427979 -8.9543457 17.64459229 C-8.94274414 15.96623291 -8.94274414 15.96623291 -8.9309082 14.25396729 C-8.93864258 13.13506104 -8.94637695 12.01615479 -8.9543457 10.86334229 C-8.95176758 9.79599854 -8.94918945 8.72865479 -8.9465332 7.62896729 C-8.94427734 6.64670166 -8.94202148 5.66443604 -8.93969727 4.65240479 C-8.35295331 -0.7854939 -4.52862737 0.00273361 0 0 Z " fill="#FEB125" transform="translate(177.680908203125,123.74603271484375)"/>
<path d="M0 0 C1.08081848 0.00015106 2.16163696 0.00030212 3.27520752 0.00045776 C4.43574646 0.01078033 5.5962854 0.02110291 6.79199219 0.03173828 C8.58138214 0.03598312 8.58138214 0.03598312 10.40692139 0.04031372 C14.21767195 0.05151025 18.02818764 0.07661426 21.83886719 0.10205078 C24.42219713 0.11208125 27.00553075 0.12120698 29.58886719 0.12939453 C35.92229104 0.15144793 42.25553929 0.18597452 48.58886719 0.22705078 C48.58886719 5.50705078 48.58886719 10.78705078 48.58886719 16.22705078 C33.40886719 16.22705078 18.22886719 16.22705078 2.58886719 16.22705078 C3.46320661 44.49735884 4.79163511 71.61484607 25.38964844 93.18408203 C36.19350846 103.22034987 48.85819836 111.04730002 63.40136719 113.91455078 C72.40833733 116.00409152 76.64613451 121.85483933 81.58886719 129.22705078 C82.29446911 130.54019515 82.98436149 131.8644081 83.58886719 133.22705078 C59.51019802 134.13758869 36.69162415 126.46206297 18.58886719 110.22705078 C17.69425781 109.42654297 16.79964844 108.62603516 15.87792969 107.80126953 C2.07105271 94.7485497 -6.75275987 78.61643565 -11.41113281 60.22705078 C-11.59063477 59.52620361 -11.77013672 58.82535645 -11.95507812 58.10327148 C-13.90722519 49.22868522 -13.78333254 40.2515419 -13.78173828 31.2097168 C-13.7861509 28.40304588 -13.82268179 25.59790194 -13.86035156 22.79150391 C-13.86621415 20.99268109 -13.87018727 19.19385091 -13.87207031 17.39501953 C-13.88644135 16.56366989 -13.90081238 15.73232025 -13.9156189 14.8757782 C-13.87380974 9.54271569 -13.04263247 6.39940359 -9.41113281 2.22705078 C-6.22655529 0.20146561 -3.73771781 -0.01746597 0 0 Z " fill="#FFB125" transform="translate(130.4111328125,162.77294921875)"/>
<path d="M0 0 C7.58052776 -0.09897244 15.16067831 -0.17151964 22.74169922 -0.21972656 C25.31989088 -0.23982563 27.89803704 -0.26710941 30.47607422 -0.30175781 C34.18468461 -0.35034847 37.89269156 -0.37298658 41.6015625 -0.390625 C42.75177887 -0.41127014 43.90199524 -0.43191528 45.08706665 -0.45318604 C51.32711536 -0.45493058 55.36575299 -0.38871761 60 4 C62.92129311 7.6575326 62.30569622 12.36079055 62.30078125 16.83203125 C62.30506638 17.7008342 62.3093515 18.56963715 62.31376648 19.46476746 C62.31950826 21.30812715 62.32001115 23.15150951 62.31567383 24.99487305 C62.31255398 27.76457576 62.33583296 30.53316686 62.36132812 33.30273438 C62.46804547 62.49978043 53.0583781 86.25453485 32.875 107.5625 C17.76897864 122.33468663 -4.56330446 133.19228313 -25.859375 133.08789062 C-26.52453125 133.07951172 -27.1896875 133.07113281 -27.875 133.0625 C-28.56335938 133.05798828 -29.25171875 133.05347656 -29.9609375 133.04882812 C-31.64066335 133.03716336 -33.32034375 133.01923271 -35 133 C-33.22491084 129.9238811 -31.42216567 127.1538415 -29.0625 124.5 C-27.30583735 122.51380009 -25.7787163 120.65928515 -24.328125 118.42578125 C-21.12031175 115.08341208 -18.11097695 114.64611371 -13.6875 113.6875 C6.01913372 108.75835512 22.09319721 97.24598171 33 80 C42.68769102 63.51359143 44.92739923 47.23054723 45.5625 28.4375 C45.706875 24.333125 45.85125 20.22875 46 16 C30.82 16 15.64 16 0 16 C0 10.72 0 5.44 0 0 Z " fill="#FEB124" transform="translate(333,163)"/>
<path d="M0 0 C12.54 0 25.08 0 38 0 C40.4952674 5.61435166 42.8885358 11.12704538 45 16.875 C45.38019287 17.90536377 45.38019287 17.90536377 45.76806641 18.95654297 C46.27492617 20.33074603 46.78097243 21.70524946 47.28613281 23.08007812 C47.93126054 24.81512754 48.60091921 26.54100753 49.2734375 28.265625 C51.09210447 32.98642012 52.55748746 36.84324099 52 42 C48.88045872 43.55977064 45.57040616 43.12104126 42.1484375 43.09765625 C41.37440582 43.0962413 40.60037415 43.09482635 39.80288696 43.09336853 C37.32688558 43.08776403 34.85097412 43.07521083 32.375 43.0625 C30.69791797 43.05748558 29.02083453 43.05292257 27.34375 43.04882812 C23.22913194 43.03779315 19.11458122 43.02052554 15 43 C14.79431396 42.39752441 14.58862793 41.79504883 14.37670898 41.17431641 C10.49431451 29.83174005 6.56031939 18.53469921 2.08374023 7.41064453 C0 2.19610748 0 2.19610748 0 0 Z " fill="#FE901D" transform="translate(295,398)"/>
<path d="M0 0 C0.33 0 0.66 0 1 0 C1.02578125 1.093125 1.0515625 2.18625 1.078125 3.3125 C1.94050219 29.49427152 6.38062545 59.6700384 23 81 C23 81.66 23 82.32 23 83 C6.17 83 -10.66 83 -28 83 C-25.36 77.72 -22.72 72.44 -20 67 C-9.47170369 45.58036268 -3.82347195 23.56892645 0 0 Z " fill="#FDD02F" transform="translate(240,315)"/>
<path d="M0 0 C2.49565427 0.28236436 3.66327913 0.60174223 5.30517578 2.54370117 C5.86954346 3.53333862 5.86954346 3.53333862 6.4453125 4.54296875 C7.0940332 5.64958862 7.0940332 5.64958862 7.75585938 6.77856445 C8.20767578 7.57351318 8.65949219 8.36846191 9.125 9.1875 C13.04644576 15.86180601 17.14905179 22.26157684 21.73876953 28.49487305 C25.82456646 34.04940376 28.3071164 37.816483 28.87890625 44.8125 C28.9365062 45.4626709 28.99410614 46.1128418 29.05345154 46.78271484 C29.23506163 48.85433032 29.39969443 50.92682958 29.5625 53 C29.78678787 55.70888107 30.0185844 58.41705666 30.25390625 61.125 C30.31035309 61.78773926 30.36679993 62.45047852 30.42495728 63.13330078 C30.90711996 68.54535462 31.6926592 73.87741684 32.61303711 79.23046875 C32.9809667 81.86377678 33.07066554 84.34564473 33 87 C14.14131168 74.21019808 4.4693884 52.74240083 0.12719727 30.93774414 C-1.56422424 21.19601269 -1.96067655 10.8545538 -1 1 C-0.67 0.67 -0.34 0.34 0 0 Z " fill="#FE901C" transform="translate(1,139)"/>
<path d="M0 0 C1.32 0.33 2.64 0.66 4 1 C5.09235157 30.29182756 -0.58873938 57.76753262 -21 80 C-28.23130435 87 -28.23130435 87 -30 87 C-29.19215778 78.4511285 -28.15184227 69.93737217 -27.08129883 61.41796875 C-26.24647537 54.60669391 -25.67182075 47.9302658 -25.69921875 41.0625 C-24.61694147 36.32224643 -21.8026609 32.90932762 -19 29 C-18.00606335 27.52723845 -17.01766209 26.05072424 -16.03515625 24.5703125 C-15.54821289 23.84247559 -15.06126953 23.11463867 -14.55957031 22.36474609 C-9.61409608 14.96589081 -4.72005096 7.54543357 0 0 Z " fill="#FE901C" transform="translate(508,139)"/>
<path d="M0 0 C0.75410156 0.22171875 1.50820313 0.4434375 2.28515625 0.671875 C0.82356003 21.62142082 -14.51934976 43.82030195 -29.71484375 57.671875 C-37.14690779 63.53248272 -44.91044771 68.16070303 -53.71484375 71.671875 C-54.04484375 71.011875 -54.37484375 70.351875 -54.71484375 69.671875 C-53.94555664 67.65087891 -53.94555664 67.65087891 -52.6875 65.1484375 C-52.22923828 64.21918457 -51.77097656 63.28993164 -51.29882812 62.33251953 C-50.79673828 61.33075684 -50.29464844 60.32899414 -49.77734375 59.296875 C-46.36701285 52.41461977 -43.22143469 45.59611223 -40.63793945 38.3605957 C-37.13526839 28.63260078 -33.5394067 23.43875499 -24.71484375 17.671875 C-22.28486265 15.83962127 -19.90897867 13.94130673 -17.52734375 12.046875 C-16.92978271 11.5830542 -16.33222168 11.1192334 -15.71655273 10.64135742 C-11.73997544 7.54981273 -8.01431846 4.29675022 -4.4609375 0.71875 C-2.71484375 -0.328125 -2.71484375 -0.328125 0 0 Z " fill="#FE901C" transform="translate(502.71484375,238.328125)"/>
<path d="M0 0 C4.98551556 0.40622719 7.71721428 3.00728744 11.25 6.25 C15.23411654 9.81376901 19.24308492 13.24136963 23.5546875 16.40625 C24.31491211 16.96538086 25.07513672 17.52451172 25.85839844 18.10058594 C27.33391459 19.17432432 28.81859869 20.23561194 30.31347656 21.28222656 C35.28453229 24.92078599 37.75505999 28.29243758 40 34 C40.30373535 34.7434668 40.6074707 35.48693359 40.92041016 36.25292969 C41.88610853 38.66039615 42.81977668 41.07862421 43.75 43.5 C46.6511974 50.94791228 49.86918813 58.10619604 53.64941406 65.15039062 C54.48736173 66.73940006 55.25166201 68.36687492 56 70 C55.67 70.66 55.34 71.32 55 72 C28.80541975 59.93800382 12.33167651 40.20817529 1.64453125 13.62890625 C-1.40717752 5.11953401 -1.40717752 5.11953401 0 0 Z " fill="#FE901C" transform="translate(8,238)"/>
<path d="M0 0 C0.495 0.99 0.495 0.99 1 2 C-4.62179609 13.14530904 -13.24099348 23.28639804 -23 31 C-23.85980469 31.70769531 -24.71960938 32.41539062 -25.60546875 33.14453125 C-39.08219926 43.82042978 -56.34726995 53.21742966 -74 52 C-70.4278104 47.75199075 -66.74385406 43.66507756 -62.9375 39.625 C-57.66226698 33.99336955 -53.02882591 27.94540066 -48.50366211 21.69970703 C-47.98940674 21.00345215 -47.47515137 20.30719727 -46.9453125 19.58984375 C-46.49687988 18.96972412 -46.04844727 18.34960449 -45.58642578 17.71069336 C-42.3030274 14.17010049 -38.11155394 12.53147755 -33.6484375 10.9140625 C-32.63136719 10.54023438 -31.61429687 10.16640625 -30.56640625 9.78125 C-29.51324219 9.3996875 -28.46007812 9.018125 -27.375 8.625 C-20.17786586 6.01277359 -13.20839671 3.27660361 -6.36181641 -0.16650391 C-3.71273002 -1.10137892 -2.55854816 -1.10915595 0 0 Z " fill="#FE901C" transform="translate(469,329)"/>
<path d="M0 0 C3.93629551 0.65340785 7.3588575 1.84146539 11.04296875 3.36328125 C12.19990234 3.83830078 13.35683594 4.31332031 14.54882812 4.80273438 C15.74958984 5.30095703 16.95035156 5.79917969 18.1875 6.3125 C20.55588253 7.28802036 22.92437047 8.26328484 25.29296875 9.23828125 C27.00178223 9.95177734 27.00178223 9.95177734 28.74511719 10.6796875 C30.7804189 11.50528844 32.83187562 12.29324105 34.90332031 13.0234375 C40.75662591 15.10596826 43.8884808 17.24889759 47.375 22.375 C48.29255356 23.62721802 49.21323316 24.8771503 50.13671875 26.125 C50.60255371 26.764375 51.06838867 27.40375 51.54833984 28.0625 C53.9600672 31.28138131 56.56233423 34.32942665 59.1875 37.375 C59.68781738 37.95773682 60.18813477 38.54047363 60.70361328 39.14086914 C64.1871818 43.15829367 67.8211825 46.9738508 71.671875 50.64453125 C73 52 73 52 73 53 C54.0919679 54.30400221 36.10779009 43.61195916 22 32 C21.27425781 31.42636719 20.54851562 30.85273438 19.80078125 30.26171875 C10.67715242 22.75130523 4.04526324 13.0495212 -2 3 C-1.34 2.01 -0.68 1.02 0 0 Z " fill="#FE901C" transform="translate(44,328)"/>
<path d="M0 0 C4.68863962 1.48108429 7.9456753 4.2317239 11.5625 7.4375 C12.16803711 7.96956055 12.77357422 8.50162109 13.39746094 9.04980469 C14.64982905 10.15322135 15.89965536 11.25952937 17.14697266 12.36865234 C18.91443177 13.92466839 20.70751931 15.44391409 22.51171875 16.95703125 C32.38279955 25.36740181 32.38279955 25.36740181 32.8449707 30.68774414 C32.89613037 31.45078857 32.94729004 32.21383301 33 33 C33.0815332 33.90532471 33.16306641 34.81064941 33.24707031 35.7434082 C33.95356786 43.95098285 34.12102971 52.0778202 34.0625 60.3125 C34.05798828 61.54162109 34.05347656 62.77074219 34.04882812 64.03710938 C34.03720289 67.02479356 34.02086559 70.01236855 34 73 C30.72031368 71.90677123 30.35384294 71.47642795 28.51171875 68.75390625 C28.05216797 68.08037109 27.59261719 67.40683594 27.11914062 66.71289062 C26.64669922 66.00326172 26.17425781 65.29363281 25.6875 64.5625 C25.22666016 63.88767578 24.76582031 63.21285156 24.29101562 62.51757812 C18.34123209 53.72116659 13.19054013 44.83008203 9 35.0625 C8.57428711 34.07338623 8.14857422 33.08427246 7.70996094 32.06518555 C4.96419638 25.56455153 2.44715369 19.01894368 0.25 12.3125 C-0.01425781 11.5294751 -0.27851563 10.7464502 -0.55078125 9.93969727 C-2.20686916 4.60650275 -2.20686916 4.60650275 -1.140625 1.48046875 C-0.76421875 0.99191406 -0.3878125 0.50335938 0 0 Z " fill="#FE901C" transform="translate(434,105)"/>
<path d="M0 0 C1.32 0.66 2.64 1.32 4 2 C-1.02182206 25.96126526 -12.55909826 55.17259628 -30 73 C-30.66 73 -31.32 73 -32 73 C-32.37808236 47.06645824 -32.37808236 47.06645824 -31.3125 35.1875 C-31.25916504 34.43750732 -31.20583008 33.68751465 -31.15087891 32.91479492 C-30.39457994 25.78573386 -26.63499093 22.15562146 -21.3125 17.6875 C-18.12730382 14.97707835 -15.02101083 12.20077056 -11.9375 9.375 C-8.12551247 5.92830339 -4.25936923 2.87044448 0 0 Z " fill="#FE901C" transform="translate(76,105)"/>
<path d="M0 0 C2.1875 0.3125 2.1875 0.3125 4 1 C4.02506235 4.92861947 4.04302799 8.85720679 4.05493164 12.78588867 C4.0623244 14.76547892 4.07504274 16.74504701 4.08789062 18.72460938 C4.09740942 22.48453334 4.05818285 26.24057122 4 30 C4.00483398 31.03479492 4.00966797 32.06958984 4.01464844 33.13574219 C3.82184065 39.29076007 2.58835391 42.54944451 -1.86303711 46.84399414 C-2.52698486 47.43172607 -3.19093262 48.01945801 -3.875 48.625 C-4.55248291 49.26107178 -5.22996582 49.89714355 -5.92797852 50.55249023 C-7.92276309 52.40457153 -9.94929386 54.21020845 -12 56 C-12.54672363 56.47808105 -13.09344727 56.95616211 -13.65673828 57.44873047 C-16.69411887 60.06981531 -19.81491106 62.5616544 -23 65 C-23.79792969 65.61875 -24.59585937 66.2375 -25.41796875 66.875 C-30.81293403 71 -30.81293403 71 -32 71 C-31.46257677 64.32251632 -30.16151925 58.4558045 -28 52.125 C-27.69022217 51.21443848 -27.38044434 50.30387695 -27.0612793 49.36572266 C-13.29891436 10.06315882 -13.29891436 10.06315882 0 0 Z " fill="#FE901C" transform="translate(384,326)"/>
<path d="M0 0 C2.78351892 0.24281761 3.84345176 0.83627379 5.7890625 2.87109375 C18.2932173 20.35030588 36.38587619 48.56612917 35 71 C25.0461114 65.23445537 16.74761133 57.20415796 8.44189453 49.33203125 C7.21643068 48.19994003 5.93908053 47.12443251 4.65234375 46.0625 C2.06807035 43.85498925 0.2590048 42.18542492 -0.48291016 38.78979492 C-1.04735782 30.81526008 -1.14902749 22.86814646 -1.125 14.875 C-1.12857031 13.5364574 -1.1324746 12.19791564 -1.13671875 10.859375 C-1.13542969 9.60382813 -1.13414063 8.34828125 -1.1328125 7.0546875 C-1.13168457 5.91499512 -1.13055664 4.77530273 -1.12939453 3.60107422 C-1 1 -1 1 0 0 Z " fill="#FE901C" transform="translate(125,326)"/>
<path d="M0 0 C2.1328125 -0.01953125 2.1328125 -0.01953125 5 1 C7.29996817 3.54509843 9.05968977 6.40975053 10.875 9.3125 C11.39731201 10.13121582 11.91962402 10.94993164 12.45776367 11.79345703 C13.5008692 13.43601323 14.53737423 15.08278164 15.56689453 16.73388672 C16.79250781 18.67190077 18.06012225 20.56084418 19.37109375 22.44140625 C23.18809298 28.20914552 24.93024142 32.35476683 23.8515625 39.265625 C20.92382454 52.10469604 17.69024076 64.67930035 13 77 C10.34242204 75.67121102 10.3192214 74.61407606 9.37890625 71.8359375 C8.93744263 70.5355957 8.93744263 70.5355957 8.48706055 69.20898438 C8.02940308 67.80616211 8.02940308 67.80616211 7.5625 66.375 C7.09227417 64.93737305 7.09227417 64.93737305 6.61254883 63.47070312 C1.71638405 48.16586353 -7.73918658 15.47837316 0 0 Z " fill="#FE901C" transform="translate(439,185)"/>
<path d="M0 0 C1.32 0 2.64 0 4 0 C12.15086389 16.30172778 1.73912154 50.30683216 -3.3671875 66.4609375 C-6.48164639 75.74082319 -6.48164639 75.74082319 -9 77 C-12.68536679 66.50846646 -15.96673828 55.94931978 -18.49853516 45.11669922 C-18.92653383 43.31010305 -19.40183022 41.51482134 -19.88671875 39.72265625 C-21.54361628 31.15614347 -17.44779033 25.22426938 -12.91015625 18.29296875 C-11.94200053 16.86069547 -10.97195802 15.42969572 -10 14 C-9.08182221 12.60039753 -8.16384798 11.20066149 -7.24609375 9.80078125 C-6.37623995 8.5104211 -5.50270221 7.22253454 -4.625 5.9375 C-4.22112061 5.33566895 -3.81724121 4.73383789 -3.40112305 4.11376953 C-2.2265625 2.46484375 -2.2265625 2.46484375 0 0 Z " fill="#FE901C" transform="translate(69,185)"/>
<path d="M0 0 C1.32 0 2.64 0 4 0 C7.00069628 8.42748741 9.63017044 16.90261678 11.875 25.5625 C12.1021167 26.40651367 12.3292334 27.25052734 12.56323242 28.12011719 C14.52823057 35.91785241 13.44926315 40.88454285 9.5625 47.9375 C9.21413086 48.58066162 8.86576172 49.22382324 8.50683594 49.88647461 C4.77807049 56.63115329 0.50950666 62.99967331 -3.86132812 69.34033203 C-5.60095581 71.87592144 -7.29972853 74.43789368 -9 77 C-9.66 76.67 -10.32 76.34 -11 76 C-12.04625998 18.06938996 -12.04625998 18.06938996 0 0 Z " fill="#FE901C" transform="translate(422,260)"/>
<path d="M0 0 C1.65 0.33 3.3 0.66 5 1 C7.88665104 9.57713937 10.39611537 18.13622362 12.25 27 C12.41274414 27.77577393 12.57548828 28.55154785 12.74316406 29.35083008 C14.26093865 36.85511366 15.12856525 44.11581898 15.09765625 51.78125 C15.0962413 52.48020386 15.09482635 53.17915771 15.09336853 53.89929199 C15.0878367 56.09957429 15.07529777 58.29974923 15.0625 60.5 C15.05747616 62.00520685 15.05291482 63.51041532 15.04882812 65.015625 C15.03788977 68.67711735 15.02067359 72.33854817 15 76 C14.01 76.495 14.01 76.495 13 77 C6.33213223 67.18612363 -0.04517959 57.26359291 -6 47 C-6.73476562 45.7934375 -6.73476562 45.7934375 -7.484375 44.5625 C-11.82442943 36.95254155 -8.66492075 29.24000959 -6.52148438 21.29882812 C-6.04678711 19.5730957 -6.04678711 19.5730957 -5.5625 17.8125 C-5.24990234 16.65041016 -4.93730469 15.48832031 -4.61523438 14.29101562 C-3.28746357 9.40942275 -1.9596796 4.67102445 0 0 Z " fill="#FE901C" transform="translate(86,260)"/>
<path d="M0 0 C4.9481472 -0.04586336 9.89555974 -0.0857022 14.84375 -0.10986328 C16.52769466 -0.11993317 18.21162179 -0.13358988 19.89550781 -0.15087891 C22.31319501 -0.17508426 24.73065143 -0.18647296 27.1484375 -0.1953125 C27.9036972 -0.20563507 28.65895691 -0.21595764 29.43710327 -0.22659302 C31.2929398 -0.22699318 33.1481928 -0.12222716 35 0 C37.60868369 2.60868369 37.25728913 3.74532364 37.265625 7.375 C37.26949219 8.97601563 37.26949219 8.97601563 37.2734375 10.609375 C37.26570313 11.72828125 37.25796875 12.8471875 37.25 14 C37.26160156 15.67835938 37.26160156 15.67835938 37.2734375 17.390625 C37.27085937 18.45796875 37.26828125 19.5253125 37.265625 20.625 C37.26336914 21.60726562 37.26111328 22.58953125 37.25878906 23.6015625 C37 26 37 26 35 28 C32.34708243 28.17510386 29.80013826 28.23155483 27.1484375 28.1953125 C26.37440582 28.1924826 25.60037415 28.18965271 24.80288696 28.18673706 C22.32676843 28.17552754 19.8510095 28.15042203 17.375 28.125 C15.69792188 28.11497118 14.02083811 28.10584516 12.34375 28.09765625 C8.22891613 28.07728579 4.11486134 28.03813981 0 28 C0 18.76 0 9.52 0 0 Z " fill="#FF901D" transform="translate(306,124)"/>
</svg>
